<?xml version="1.0" encoding="iso-8859-1"?>
<!-- Uploaded to: SVG Repo, www.svgrepo.com, Generator: SVG Repo Mixer Tools -->
<svg height="800px" width="800px" version="1.1" id="Layer_1" xmlns="http://www.w3.org/2000/svg" xmlns:xlink="http://www.w3.org/1999/xlink" 
	 viewBox="0 0 508 508" xml:space="preserve">
<path style="fill:#194F82;" d="M493.9,0H127.7c-7.8,0-14.1,6.3-14.1,14.1v70c0,7.8,6.3,14.1,14.1,14.1s14.1-6.3,14.1-14.1V28.2h338
	v232.7H257.3c-7.8,0-14.1,6.3-14.1,14.1c0,7.8,6.3,14.1,14.1,14.1h236.6c7.8,0,14.1-6.3,14.1-14.1V14.1C508,6.3,501.7,0,493.9,0z"/>
<polyline style="fill:#FFFFFF;" points="257.3,260.9 479.8,260.9 479.8,28.2 141.8,28.2 141.8,84.1 "/>
<path style="fill:#FFC10D;" d="M451.5,56.5H170v47c36.6,16.7,62.2,53.6,62.2,96.4c0,11.5-1.9,22.5-5.3,32.8h224.7V56.5H451.5z"/>
<g>
	<path style="fill:#194F82;" d="M429.3,100.3H221.6c-7.8,0-14.1-6.3-14.1-14.1s6.3-14.1,14.1-14.1h207.7c7.8,0,14.1,6.3,14.1,14.1
		S437.1,100.3,429.3,100.3z"/>
	<path style="fill:#194F82;" d="M429.3,158.7H279.2c-7.8,0-14.1-6.3-14.1-14.1s6.3-14.1,14.1-14.1h150.2c7.8,0,14.1,6.3,14.1,14.1
		S437.1,158.7,429.3,158.7z"/>
	<path style="fill:#194F82;" d="M429.3,217H279.2c-7.8,0-14.1-6.3-14.1-14.1s6.3-14.1,14.1-14.1h150.2c7.8,0,14.1,6.3,14.1,14.1
		C443.4,210.7,437.1,217,429.3,217z"/>
</g>
<path style="fill:#56ACE0;" d="M185,324.5h-5.3l-40.8,87.8c-5.1,11-20.7,11-25.8,0l-40.9-87.9H67c-21.4,0-38.9,17.5-38.9,38.9v10.3
	H70c7.8,0,14.1,6.3,14.1,14.1c0,7.8-6.3,14.1-14.1,14.1H28.2v26.4H49c7.8,0,14.1,6.3,14.1,14.1c0,7.8-6.3,14.1-14.1,14.1H28.2v23.3
	h195.6V363.3C223.8,341.9,206.4,324.5,185,324.5z"/>
<path style="fill:#194F82;" d="M185,296.3c0,0-24.7,3.2-27,8.2l-32,68.6l-31.9-68.6c-2.3-5-27.1-8.2-27.1-8.2c-37,0-67,30-67,67
	v130.5c0,7.9,6.4,14.2,14.2,14.2h223.6c7.9,0,14.2-6.4,14.2-14.2V363.4C252,326.5,221.9,296.3,185,296.3z M223.8,479.8H28.2v-23.3
	H49c7.8,0,14.1-6.3,14.1-14.1c0-7.8-6.3-14.1-14.1-14.1H28.2v-26.4h41.9c7.8,0,14.1-6.3,14.1-14.1c0-7.8-6.3-14.1-14.1-14.1H28.2
	v-10.3c0-21.4,17.5-38.9,38.9-38.9h5.2l40.9,87.9c5.1,11,20.7,11,25.8,0l40.8-87.8h5.3c21.4,0,38.8,17.4,38.8,38.8v116.4H223.8z"/>
<path style="fill:#56ACE0;" d="M126,150.2c-27.4,0-49.6,22.3-49.6,49.6s22.3,49.6,49.6,49.6s49.6-22.3,49.6-49.6
	S153.4,150.2,126,150.2z"/>
<path style="fill:#194F82;" d="M126,122c-42.9,0-77.9,34.9-77.9,77.9S83,277.8,126,277.8s77.9-34.9,77.9-77.9S169,122,126,122z
	 M126,249.5c-27.4,0-49.6-22.3-49.6-49.6s22.3-49.6,49.6-49.6s49.6,22.3,49.6,49.6S153.4,249.5,126,249.5z"/>
</svg>