<?xml version="1.0" encoding="iso-8859-1"?>
<!-- Uploaded to: SVG Repo, www.svgrepo.com, Generator: SVG Repo Mixer Tools -->
<svg version="1.1" id="Layer_1" xmlns="http://www.w3.org/2000/svg" xmlns:xlink="http://www.w3.org/1999/xlink" 
	 viewBox="0 0 512 512" xml:space="preserve">
<g>
	<path style="fill:#FF5023;" d="M216.189,482.673H77.597c-18.254,0-33.105-14.851-33.105-33.105v-26.415h37.545V315.95H44.493
		v-89.005c0-61.056,26.651-119.231,73.117-159.608c3.217-2.796,3.559-7.671,0.764-10.888c-2.795-3.218-7.671-3.561-10.889-0.764
		c-49.842,43.309-78.428,105.731-78.428,171.26v89.005v6.018v73.4v27.787v26.415c0,26.766,21.776,48.542,48.542,48.542h138.592
		c4.263,0,7.719-3.455,7.719-7.719C223.908,486.129,220.452,482.673,216.189,482.673z"/>
	<path style="fill:#FF5023;" d="M416.286,66.659C373.301,23.673,316.376,0,255.999,0c-32.527,0-63.984,6.82-93.497,20.272
		c-3.879,1.768-5.59,6.346-3.822,10.225c1.768,3.88,6.346,5.59,10.225,3.822c27.49-12.529,56.792-18.882,87.096-18.882
		c116.625,0,211.507,94.881,211.507,211.508v89.005h-44.844v107.204h53.381c3.811,0,6.9-3.09,6.9-6.9v-94.285v-6.018v-89.005
		C482.944,166.568,459.271,109.643,416.286,66.659z"/>
</g>
<path style="fill:#52A2E7;" d="M129.152,454.274H93.598c-13.533,0-24.504-10.971-24.504-24.504V302.672
	c0-13.533,10.971-24.504,24.504-24.504h35.554C129.152,278.168,129.152,454.274,129.152,454.274z"/>
<path style="fill:#D7D5D9;" d="M147.833,429.513h-18.681V302.928h18.681c7.374,0,13.351,5.977,13.351,13.351v99.882
	C161.185,423.536,155.207,429.513,147.833,429.513z"/>
<path style="fill:#52A2E7;" d="M381.882,278.168h35.554c13.533,0,24.504,10.971,24.504,24.504V429.77
	c0,13.533-10.971,24.504-24.504,24.504h-35.554V278.168z"/>
<g>
	<path style="opacity:0.28;fill:#3C66B1;enable-background:new    ;" d="M420.01,278.304c0.089,0.847,0.136,1.705,0.136,2.575
		v127.098c0,13.533-10.971,24.504-24.504,24.504h-13.761v21.793h35.554c13.533,0,24.504-10.971,24.504-24.504V302.672
		C441.938,290.008,432.332,279.591,420.01,278.304z"/>
	<path style="opacity:0.28;fill:#3C66B1;enable-background:new    ;" d="M91.022,278.304c-0.089,0.847-0.136,1.705-0.136,2.575
		v127.098c0,13.533,10.971,24.504,24.504,24.504h13.761v21.793H93.597c-13.533,0-24.504-10.971-24.504-24.504V302.672
		C69.094,290.008,78.7,279.591,91.022,278.304z"/>
</g>
<g>
	<path style="fill:#D7D5D9;" d="M363.199,302.928h18.681v126.585h-18.681c-7.374,0-13.351-5.977-13.351-13.351V316.28
		C349.848,308.906,355.826,302.928,363.199,302.928z"/>
	<path style="fill:#D7D5D9;" d="M279.654,512h-48.717c-11.886,0-21.61-9.724-21.61-21.61l0,0c0-11.886,9.724-21.61,21.61-21.61
		h48.717c11.886,0,21.61,9.724,21.61,21.61l0,0C301.264,502.276,291.54,512,279.654,512z"/>
</g>
<g>
	<path style="opacity:0.36;fill:#77757E;enable-background:new    ;" d="M288.176,470.548c1.133,2.619,1.768,5.499,1.768,8.521l0,0
		c0,11.886-9.724,21.61-21.61,21.61h-48.717c-3.023,0-5.902-0.635-8.521-1.768C214.419,506.59,222.075,512,230.938,512h48.717
		c11.886,0,21.61-9.724,21.61-21.61l0,0C301.264,481.527,295.854,473.871,288.176,470.548z"/>
	<rect x="129.157" y="302.929" style="opacity:0.36;fill:#77757E;enable-background:new    ;" width="16.017" height="126.585"/>
	<rect x="365.861" y="302.929" style="opacity:0.36;fill:#77757E;enable-background:new    ;" width="16.017" height="126.585"/>
</g>
<g>
	<rect x="441.935" y="315.948" style="opacity:0.34;fill:#891C00;enable-background:new    ;" width="19.059" height="107.206"/>
	<rect x="50.036" y="315.948" style="opacity:0.34;fill:#891C00;enable-background:new    ;" width="19.059" height="107.206"/>
</g>
</svg>